<svg width="1700" height="1486" viewBox="0 0 1700 1486" fill="none" xmlns="http://www.w3.org/2000/svg">
<g filter="url(#filter0_bi_69_59)">
<path d="M801.141 584.315C884.382 796.069 403.931 1047.56 148.45 1148.95C145.355 1150.18 143.436 1153.12 143.436 1156.45C143.436 1158.34 142.778 1160.16 141.576 1161.62L93.1043 1220.22C68.6094 1249.83 56.362 1264.63 57.4388 1277.63C58.0285 1284.74 60.9811 1291.46 65.8269 1296.7C74.6751 1306.28 93.865 1307.26 132.245 1309.22L290.903 1317.33C298.985 1317.74 303.026 1317.95 306.925 1317.17C309.125 1316.74 311.327 1316.05 313.387 1315.16C317.036 1313.58 320.159 1311.18 326.405 1306.38C552.235 1132.82 974.665 764.088 974.665 584.315C974.665 407.502 782.095 243.316 674.501 175.582L674.5 175.582C669.675 172.545 667.262 171.026 664.314 169.898C662.707 169.284 660.826 168.741 659.138 168.405C656.042 167.788 652.963 167.788 646.806 167.788H551.53C419.187 167.788 353.016 167.788 343.412 180.453C337.762 187.903 335.911 195.043 337.23 204.3C339.471 220.036 399.913 253.632 520.796 320.826C647.375 391.185 760.403 480.681 801.141 584.315Z" fill="white" fill-opacity="0.54"/>
</g>
<g filter="url(#filter1_bi_69_59)">
<path d="M940.653 667.615C966.289 893.621 437.052 1012.07 164 1043.83C160.694 1044.22 158.08 1046.56 157.219 1049.78C156.731 1051.6 155.623 1053.19 154.085 1054.28L92.1457 1098.28C60.8041 1120.54 45.1334 1131.67 42.8079 1144.5C41.5343 1151.53 42.6479 1158.78 45.9712 1165.1C52.0396 1176.64 70.3281 1182.56 106.905 1194.39L258.079 1243.29C265.775 1245.78 269.623 1247.02 273.588 1247.28C275.826 1247.43 278.129 1247.34 280.348 1247.01C284.279 1246.43 287.916 1244.92 295.189 1241.91C558.265 1132.79 1061.79 886.114 1108.3 712.534C1154.04 541.812 1010.47 333.429 924.044 240.18C920.17 235.999 918.233 233.909 915.678 232.059C914.285 231.05 912.609 230.04 911.067 229.278C908.237 227.882 905.265 227.086 899.32 225.493L807.414 200.867C679.52 166.598 615.572 149.463 603.018 159.212C595.632 164.946 591.996 171.364 590.875 180.648C588.968 196.428 638.684 244.541 738.115 340.767C842.139 441.437 928.112 557.056 940.653 667.615Z" fill="white" fill-opacity="0.54"/>
</g>
<g filter="url(#filter2_bi_69_59)">
<path d="M1047.07 756.267C1013.34 981.207 471.479 958.645 199.511 918.652C196.218 918.167 193.086 919.756 191.421 922.638C190.479 924.271 188.996 925.524 187.229 926.18L116.013 952.645C79.9774 966.036 61.9597 972.732 56.3926 984.524C53.3438 990.981 52.5427 998.273 54.1168 1005.24C56.9912 1017.96 73.1255 1028.41 105.394 1049.3L238.761 1135.66C245.55 1140.06 248.945 1142.25 252.708 1143.53C254.831 1144.25 257.08 1144.76 259.307 1145.02C263.254 1145.48 267.158 1144.96 274.964 1143.93C557.316 1106.62 1107.52 998.672 1197.38 843.045C1285.75 689.979 1201 451.538 1141.66 339.098C1139 334.057 1137.67 331.537 1135.68 329.088C1134.59 327.753 1133.24 326.344 1131.94 325.209C1129.57 323.128 1126.91 321.59 1121.58 318.512L1039.18 270.938C924.509 204.735 867.175 171.634 852.525 177.801C843.907 181.429 838.734 186.687 835.248 195.364C829.322 210.113 864.891 269.454 936.029 388.135C1010.45 512.299 1063.57 646.229 1047.07 756.267Z" fill="white" fill-opacity="0.54"/>
</g>
<g filter="url(#filter3_bi_69_59)">
<path d="M1160.74 843.997C1069.94 1052.54 552.381 890.504 300.031 781.483C296.976 780.163 293.54 780.887 291.186 783.24C289.853 784.573 288.096 785.4 286.219 785.577L210.58 792.708C172.307 796.316 153.17 798.12 144.741 808.069C140.125 813.518 137.464 820.354 137.181 827.49C136.666 840.519 149.546 854.787 175.307 883.321L281.778 1001.26C287.199 1007.26 289.909 1010.26 293.212 1012.47C295.076 1013.72 297.118 1014.79 299.202 1015.61C302.896 1017.08 306.799 1017.59 314.607 1018.62C596.994 1055.66 1156.39 1093.79 1283.46 966.72C1408.44 841.742 1388.29 589.491 1360.07 465.523C1358.81 459.966 1358.18 457.187 1356.89 454.307C1356.19 452.736 1355.24 451.024 1354.29 449.593C1352.53 446.97 1350.36 444.794 1346.01 440.442L1278.73 373.162C1185.1 279.537 1138.29 232.724 1122.54 234.889C1113.28 236.163 1106.92 239.903 1101.31 247.382C1091.77 260.094 1110.76 326.619 1148.76 459.669C1188.51 598.864 1205.16 741.979 1160.74 843.997Z" fill="white" fill-opacity="0.54"/>
</g>
<g filter="url(#filter4_bi_69_59)">
<path d="M1252.01 924.828C1110.32 1102.77 652.341 812.297 436.806 641.677C434.196 639.612 430.69 639.421 427.807 641.085C426.175 642.028 424.264 642.371 422.405 642.056L347.498 629.368C309.595 622.947 290.643 619.737 279.926 627.165C274.057 631.233 269.717 637.148 267.598 643.967C263.727 656.42 272.476 673.535 289.974 707.765L362.294 849.237C365.975 856.439 367.816 860.04 370.436 863.029C371.913 864.715 373.608 866.278 375.407 867.616C378.596 869.987 382.234 871.492 389.51 874.502C652.688 983.369 1183.16 1164.98 1338.79 1075.13C1491.85 986.761 1537.68 737.89 1542.51 610.842C1542.72 605.147 1542.83 602.299 1542.33 599.184C1542.06 597.485 1541.59 595.586 1541.04 593.957C1540.02 590.97 1538.49 588.305 1535.41 582.974L1487.83 500.574C1421.63 385.907 1388.53 328.573 1372.76 326.589C1363.48 325.422 1356.37 327.389 1349.01 333.16C1336.51 342.97 1337.64 412.146 1339.91 550.496C1342.28 695.237 1321.32 837.784 1252.01 924.828Z" fill="white" fill-opacity="0.54"/>
</g>
<defs>
<filter id="filter0_bi_69_59" x="29.1735" y="139.588" width="973.692" height="1244.11" filterUnits="userSpaceOnUse" color-interpolation-filters="sRGB">
<feFlood flood-opacity="0" result="BackgroundImageFix"/>
<feGaussianBlur in="BackgroundImageFix" stdDeviation="14.1"/>
<feComposite in2="SourceAlpha" operator="in" result="effect1_backgroundBlur_69_59"/>
<feBlend mode="normal" in="SourceGraphic" in2="effect1_backgroundBlur_69_59" result="shape"/>
<feColorMatrix in="SourceAlpha" type="matrix" values="0 0 0 0 0 0 0 0 0 0 0 0 0 0 0 0 0 0 127 0" result="hardAlpha"/>
<feOffset dy="66"/>
<feGaussianBlur stdDeviation="35.2"/>
<feComposite in2="hardAlpha" operator="arithmetic" k2="-1" k3="1"/>
<feColorMatrix type="matrix" values="0 0 0 0 1 0 0 0 0 0.2625 0 0 0 0 0.4395 0 0 0 1 0"/>
<feBlend mode="normal" in2="shape" result="effect2_innerShadow_69_59"/>
</filter>
<filter id="filter1_bi_69_59" x="14.0949" y="128.299" width="1131.19" height="1185.05" filterUnits="userSpaceOnUse" color-interpolation-filters="sRGB">
<feFlood flood-opacity="0" result="BackgroundImageFix"/>
<feGaussianBlur in="BackgroundImageFix" stdDeviation="14.1"/>
<feComposite in2="SourceAlpha" operator="in" result="effect1_backgroundBlur_69_59"/>
<feBlend mode="normal" in="SourceGraphic" in2="effect1_backgroundBlur_69_59" result="shape"/>
<feColorMatrix in="SourceAlpha" type="matrix" values="0 0 0 0 0 0 0 0 0 0 0 0 0 0 0 0 0 0 127 0" result="hardAlpha"/>
<feOffset dy="66"/>
<feGaussianBlur stdDeviation="35.2"/>
<feComposite in2="hardAlpha" operator="arithmetic" k2="-1" k3="1"/>
<feColorMatrix type="matrix" values="0 0 0 0 1 0 0 0 0 1 0 0 0 0 1 0 0 0 1 0"/>
<feBlend mode="normal" in2="shape" result="effect2_innerShadow_69_59"/>
</filter>
<filter id="filter2_bi_69_59" x="25.1296" y="148.871" width="1238.64" height="1062.32" filterUnits="userSpaceOnUse" color-interpolation-filters="sRGB">
<feFlood flood-opacity="0" result="BackgroundImageFix"/>
<feGaussianBlur in="BackgroundImageFix" stdDeviation="14.1"/>
<feComposite in2="SourceAlpha" operator="in" result="effect1_backgroundBlur_69_59"/>
<feBlend mode="normal" in="SourceGraphic" in2="effect1_backgroundBlur_69_59" result="shape"/>
<feColorMatrix in="SourceAlpha" type="matrix" values="0 0 0 0 0 0 0 0 0 0 0 0 0 0 0 0 0 0 127 0" result="hardAlpha"/>
<feOffset dy="66"/>
<feGaussianBlur stdDeviation="35.2"/>
<feComposite in2="hardAlpha" operator="arithmetic" k2="-1" k3="1"/>
<feColorMatrix type="matrix" values="0 0 0 0 0.443137 0 0 0 0 0.866353 0 0 0 0 1 0 0 0 1 0"/>
<feBlend mode="normal" in2="shape" result="effect2_innerShadow_69_59"/>
</filter>
<filter id="filter3_bi_69_59" x="108.966" y="206.617" width="1300.53" height="913.702" filterUnits="userSpaceOnUse" color-interpolation-filters="sRGB">
<feFlood flood-opacity="0" result="BackgroundImageFix"/>
<feGaussianBlur in="BackgroundImageFix" stdDeviation="14.1"/>
<feComposite in2="SourceAlpha" operator="in" result="effect1_backgroundBlur_69_59"/>
<feBlend mode="normal" in="SourceGraphic" in2="effect1_backgroundBlur_69_59" result="shape"/>
<feColorMatrix in="SourceAlpha" type="matrix" values="0 0 0 0 0 0 0 0 0 0 0 0 0 0 0 0 0 0 127 0" result="hardAlpha"/>
<feOffset dy="66"/>
<feGaussianBlur stdDeviation="35.2"/>
<feComposite in2="hardAlpha" operator="arithmetic" k2="-1" k3="1"/>
<feColorMatrix type="matrix" values="0 0 0 0 0.443137 0 0 0 0 1 0 0 0 0 0.866353 0 0 0 1 0"/>
<feBlend mode="normal" in2="shape" result="effect2_innerShadow_69_59"/>
</filter>
<filter id="filter4_bi_69_59" x="238.493" y="298.068" width="1332.39" height="867.245" filterUnits="userSpaceOnUse" color-interpolation-filters="sRGB">
<feFlood flood-opacity="0" result="BackgroundImageFix"/>
<feGaussianBlur in="BackgroundImageFix" stdDeviation="14.1"/>
<feComposite in2="SourceAlpha" operator="in" result="effect1_backgroundBlur_69_59"/>
<feBlend mode="normal" in="SourceGraphic" in2="effect1_backgroundBlur_69_59" result="shape"/>
<feColorMatrix in="SourceAlpha" type="matrix" values="0 0 0 0 0 0 0 0 0 0 0 0 0 0 0 0 0 0 127 0" result="hardAlpha"/>
<feOffset dy="66"/>
<feGaussianBlur stdDeviation="35.2"/>
<feComposite in2="hardAlpha" operator="arithmetic" k2="-1" k3="1"/>
<feColorMatrix type="matrix" values="0 0 0 0 1 0 0 0 0 0.878431 0 0 0 0 0.443137 0 0 0 1 0"/>
<feBlend mode="normal" in2="shape" result="effect2_innerShadow_69_59"/>
</filter>
</defs>
</svg>
